# xmcd CD database file
#
# Track frame offsets:
#	150
#	12410
#	30075
#	45094
#	62978
#	75852
#	92171
#	107748
#	116023
#	131762
#
# Disc length: 1928 seconds
#
# Revision: 0
# Processed by: cddbd v1.5.1PL0 Copyright (c) Steve Scherf et al.
# Submitted via: CDex 1.51
#
DISCID=6f07860a
DTITLE=Frank Sinatra - Trilogy - Disc 1 - The Past
DYEAR=1980
DGENRE=Jazz
TTITLE0=The Song Is You
TTITLE1=But Not For Me
TTITLE2=I Had the Craziest Dreams
TTITLE3=I Had to Be You
TTITLE4=Let's Face the Music and Dance
TTITLE5=Street of Dreams
TTITLE6=My Shining Hour
TTITLE7=All of You
TTITLE8=More Than You Know
TTITLE9=They All Laughed
EXTD=YEAR: 1980
EXTT0=
EXTT1=
EXTT2=
EXTT3=
EXTT4=
EXTT5=
EXTT6=
EXTT7=
EXTT8=
EXTT9=
PLAYORDER=
